# xmcd
#
# Track frame offsets:
# 150
# 20107
# 35655
# 51977
# 71242
# 87877
# 101217
# 114907
# 130397
# 154330
# 175080
# 191982
# 208667
# 229637
# 249130
# 269157
# 287907
# 309840
# 328790
#
# Disc length: 4605 seconds
#
#
# Revision: 0
# Processed by: cddbd v1.5.2PL0 Copyright (c) Steve Scherf et al.
# Submitted via: FreeRIP 2.951 
#
DISCID=2211fb13
DTITLE=The Manhattans - Kiss And Say Goodbye - The Best Of The Manhattans
DYEAR=1994
DGENRE=Soul
TTITLE0=Kiss And Say Goodbye
TTITLE1=Don't Take Your Love
TTITLE2=There's No Me Without You
TTITLE3=Wish That You Were Mine
TTITLE4=The Day The Robin Sang To Me
TTITLE5=That's How Much I Love You
TTITLE6=Hurt
TTITLE7=La La La Wish Upon A Star
TTITLE8=I Kinda Miss You
TTITLE9=It Feels So Good To Be Loved So Bad
TTITLE10=Am I Losing You
TTITLE11=Everybody Has A Dream
TTITLE12=Shining Star
TTITLE13=I'll Never Find Another (Find Another Like You)
TTITLE14=Just One Moment Away
TTITLE15=I Was Made For You
TTITLE16=Just The Lonely Talking Again
TTITLE17=You Send Me
TTITLE18=Goodbye Is The Saddest Word
EXTD=1995 Columbia/Legacy\nReleased October 31, 1995\n\nAMG EXPERT REVIEW: The Best of the Manhattans: Kiss and Say Goodbye is a terrific, 19-song overview of the Manhattans' recordings for Columbia in the '70s. All but two of the group's Top Ten R&B hit
EXTD=s for the label are featured -- there's no "We Never Danced to a Love Song" or "Crazy," but "There's No Me Without You," "Don't Take Your Love," "Hurt," "Kiss and Say Goodbye," "I Kinda Miss You," "It Feels So Good to Be Loved So Bad," "Am I Losing 
EXTD=You" and "Shining Star" are all present -- and several fine lesser-known singles and album tracks are added for good measure. Although the collection might be a bit too extensive for casual fans, it's the definitive overview of the Manhattans' time 
EXTD=as a smooth soul group, illustrating how they helped develop the quiet storm subgenre. -- Stephen Thomas Erlewine\n\nAmazon.com Customer Review\nThe Smooth R&B and Classic Soul 70's!, September 2, 1998 \nReviewer: fwebb@nassau.cv.net from USA \n"Blu
EXTD=e", Gerald, Eddie and the guys were what you wanted to see, anywhere they performed. They came all the from New York to perform in the Southeast Underground (Washington, D.C.) in 1975 and I've been a true fan ever since. This album has a real sleepe
EXTD=r on it, "The Day The Robin Sang To Me". Today, there are two (2) Manhattan's. Eddie Bivins has a group, but there is only one Gerald Alston. \n\nHalf.com Album Notes\nThe Manhattans: Winfred "Blue" Lovett, Gerald "Smut" Alston, Abdul Rashid Talhah 
EXTD=[Richard Taylor], Kenneth "Wally" Kelly, Edward "Sonny" Bivins, (vocals).\n\nAdditional personnel includes: Bobby Martin, Bert DeCoteaux, Teddy Randazzo (arrangers) - James Mack (arranger, piano, Fender Rhodes electric piano) - Norman Harris, Bobby El
EXTD=i, Roland Chambers, Byron Gregory, Ira Siegel, Keith Henderson, Danny Leake (guitar) - Chris Cioe (saxophone) - Ron Kersey, Theodis Rodgers (piano) - Larry Pakula (organ) - Lloyd Landesman (keyboards, synthesizer, programming) - Terry Fryer (keyboards) - 
EXTD=Ed Tossing (synthesizer) - Steve Goldman (synthesizer, percussion) - Vince Montana (vibraphone) - Ronnie Baker, Paul Richmond, Russell Keating (bass) - Earl Young, Morris Jennings, Jr. (drums) - Larry Washington (conga) - Bobby Christian (percussion) - Mor
EXTD=rie Brown (programming) - Don Renaldo.\n\nProducers: Bobby Martin, The Manhattans (tracks 1-7, 9-12, 19) - Bert DeCoteaux, The Manhattans (track 8) - Leo Graham (tracks 13-16) - Leo Graham, Morrie Brown, Joe McEwen (track 17) - Morrie Brown (track 18).\n
EXTD=\nCompilation producer: Leo Sacks.\n\nEngineers: Kenny Present (tracks 1-2, 7) - Don Meehan (track 8) - Bob Hughs (tracks 11-12, 19) - Stuart Walder (tracks 14-16) - Stuart Walder, Mike Ferraro, Steve Goldman, Steve Addabbo (track 17) - Steve Goldman (tr
EXTD=ack 18).\n\nRecorded at Sigma Sound Studios, Philadelphia, Pennsylvania - Total Experience Sound Studios, Hollywood, California - Universal Studios, Chicago, Illinois - Celestial Sounds and Columbia Recording Studios, New York. Includes liner notes by 
EXTD=Virginia Millicent Prescott.\n\nThis is part of Legacy's Rhythm And Soul series.
EXTT0=
EXTT1=
EXTT2=
EXTT3=
EXTT4=
EXTT5=
EXTT6=
EXTT7=
EXTT8=
EXTT9=
EXTT10=
EXTT11=
EXTT12=
EXTT13=
EXTT14=
EXTT15=
EXTT16=
EXTT17=
EXTT18=
PLAYORDER=
